<mxfile host="app.diagrams.net" agent="Mozilla/5.0 (Windows NT 10.0; Win64; x64) AppleWebKit/537.36 (KHTML, like Gecko) Chrome/128.0.0.0 Safari/537.36" version="24.7.8">
  <diagram name="ページ1" id="eRg_eGmHkyKdT5xaYAmT">
    <mxGraphModel dx="1728" dy="915" grid="1" gridSize="10" guides="1" tooltips="1" connect="1" arrows="1" fold="1" page="1" pageScale="1" pageWidth="827" pageHeight="1169" math="0" shadow="0">
      <root>
        <mxCell id="0" />
        <mxCell id="1" parent="0" />
        <mxCell id="hUeENhwksUNYIn8rWy90-4" value="action" style="edgeStyle=orthogonalEdgeStyle;rounded=0;orthogonalLoop=1;jettySize=auto;html=1;verticalAlign=top;" edge="1" parent="1">
          <mxGeometry relative="1" as="geometry">
            <mxPoint x="270" y="120" as="sourcePoint" />
            <mxPoint x="170" y="120" as="targetPoint" />
          </mxGeometry>
        </mxCell>
        <mxCell id="hUeENhwksUNYIn8rWy90-1" value="python 強化学習スクリプト" style="shape=image;verticalLabelPosition=bottom;labelBackgroundColor=default;verticalAlign=top;aspect=fixed;imageAspect=0;image=data:image/png,iVBORw0KGgoAAAANSUhEUgAAAEAAAABACAYAAACqaXHeAAAAAXNSR0IArs4c6QAACWBJREFUeF7tW31wFGcZ/y1w+aDQXAmEJPwBiQNGqxhsWtK01eBMwWAbp2qdUWwbQFodJVgngw21FcYvcByRqQLNMcNddOq0tqNOlBaoQ4CUj5G7nKACzkQCDiEHuSREAqRpbs3zvvvuvbu3G/bCXsKV7szO5vbe/Xh+z/P8nt/zvjkFt/mm3Ob24wMAPoiAJBFYtWqVmuQlrg1XVXX9jh07Nrh2QyD5FBhPAMhwt0FImgMEAFu2bHHTEbb3WrNmDfuurKzs6LFjxxa6DULaAECANzY2HgkGg+VugpBWAJDhjY2Nh4PB4P1ugZB2AJDhgUDgUCgUqnADhLQEQIuElmAw+CCAdlVV/aOtDmkLgBYJB0Oh0EM3A4JrABw9evSmqsLChYzgEzZRBeyqTiAQOBAKhT41WhDSHgBCzO/3729tbf30aEBwDYCbcv8IF98oAsSlfr+/ubW1tTJZEN43ABAQO3fu3BcOhxcRCD6fr8iJU9IGACfGyGN8Pp8j2xwNkm88XlL4lgcgVVUgWcMFZ4x5BNz2ACTrqVSNH7cISJVByd437QGYOHEiaJ8wYQIUZWSOHp4coQkSDA4OsiPtaQvApEmT4PF4dIdHLl9H5PI1tpNhdISqIu/OLMz0ZrNx+d7JbNe6QgwMDKC2tpZ9TisSLC0thdfrRaTvOl555wyOn+tBZ28/92osxo4xdozpn8X5T8zJxWcXzMaC4jwU3HUHmpqa2J42AOTn56OkpAQn/tuL+tfCmoExZjB5nBsugLA7r6K0aDqe/3I5A6G+vh4bN250pHEcDUqlEMrMzGT5vsJ3GJHea5gxNQPLHijG8bNRhM9G0dnNIyGmxoAYPwrv8yN95ue//vDHsXLxfBYB1dXVjmxzNCiVAGRlZeHi/wawouEQM2RZRRGWPVjMHvnzpuN4K3yOnWeGGiJBBVQeEXKq/OH5x9B36TxFlSPbHA1KJQDZ2dkgwlv+cgsz5Nmqj2Lx/FnskY0H/o3AvlM6B8RTgnudQDGnyh9f+CIKp02hCuLINkeDxgKAmu0HmaF5UzPxtYc+xNIh0HwqwcM3IsVt31qCe+YWjD0Ao5XClZWVrMQ9tZUAsCc/EeacA7SU0I8xzg2qipe/XZWeADy59YBeAeScZzku8tyiDMbLIwdl++qlKBuPCHAiWUnsEONbqTwKeb7oaFp6ZB9VdvbxTU02KREnw4baz6FsXqH5ddppkoRm1AE0K4pCf7NtTDiApG1GRgZ74Nv/7MSJcz2auruqhbPE8iqxu8z6XOLSHmrrNAgjK1JsWPMIymb9A3i3LQ7CxGmApxjIvpfOkfGLBAgpB0AYT0Lnl2+dQmfvVS3XrcsYZ3XyqMhzY5nTQ97EBUwnqCp833kUZfkHgWt/iwPAvosBU5YAU6sMIKQUAAp1EjoX+65jpe+IJGnjys7I6olGGwWQ/L0skfn9WA9gBkAdAkAiir4fAqYsBe58hIYuVxTF7xoAVlWAJC5JXZK4x892G7W9TmhGVucGE6vfIAJMAki4mwEwkyKA1inoXhoABATde8JdQOEmGk5csChlAJDCKy8vZw3OyobDXMoKba8rO3ttL2SuWenJ8lcvmxLlcQAOAFcPcwCE4foxBuStBbI+QlcVuQaAmXZFe/vKoXb89p02qXbb5LTJo+YmSE8VQ+7zsJe31q3PABc3AO9dSjSeUoBSwfsY4P0CTwMn5Use43RWWACw+c2T2Huiw9Dlydpd9zSxPwv9kYWOsREylkwqf77VDwCRF3i4C68Lw+lI5zNLgIIXySz3OMAMpOjyara3cOY3sbpdd2dJepIAEpFB6cQ2OioKCqdNxV9+9FWgazNw/RQ33sABEiAU/oXsX43aUxYBxAHUj1Rt2msw3uBhU3dnNeFhVnoiAmTAq+//MDY8UQn0NAL9LXHvGzhAAmBSLjC7wV0hZK4CpPFpW/LT3Qb2j5NYYhkjANY9vhCfpNmdaVOcZ+dQFOgOAAMnjaFvJkA5Feb+ObUAUAWgKHjy1/u1FDBPbRnLHM3ovPT0Z7iCG2wzKjkzFELYkIcp3JmnrRhfy3mR+/qYIWDem+4CYH5HkQJP/KoZF3r6E2dxtPCnlMjPmYzXn3sUuLIH6N9juhXlupapZiPtctyO/OSIKNmbWgAECdb95gjCZ7oMU1fm7m7dl+7D0rujQN+r9mEvv7xdfZcNHykich4GCtamlgSp+aE+4Gd/CmN3+JxtFzczZzLeqK8Gun4MDPUkAkCGyFLWUahroS+HvH6fIcC7GCisp2c1p6wKiCbo7+1RPOtvsZ3Cyvdm4436zwOROgvvSxreynBzfU8gPSGFTYAUPgd4l9Lz1rsGgFUvIIjwK7/YjY7uKxbVQEVp8QxsffoeoOsn8brO6rtJw1tJWgaAGGdBgpYAAfhYiwDbPSk8UjPk33cSO//6L0aEZqW3gAB4pkwCQAv5BIOFF80Gm8Nd6/pE92dQhADyVgAzVvD8VxT3ALBiL2qHiQtIENXuaEaoLZKwskMrOtu+cS/nAEOYC4+a2tnRcICYZfIUAPN+L16VJkVSxwHiKfKa367gGew69h90RK+gI9rHUoJEz7Zv3gdc+qGm3SWPJh3iEmi6VlCBjALAWyU8z8lPUeh/icZmSoyiYMTV3qFuIPKiUcKa+3gyqOh3ztWh/Ujd+DEDgB5EANDqr1ivMKxbkJTt/L5N8yJFBGl44VmdJIUK1Lij4HvAHQuszPcPzwXup1kg+UvXqsBoXUMrQyAALtTb9+9WUtYMhIiYOS8xANJqZQjvEQBrrQGwI0Y675kBZM8HenfxyKAtPQHoAs5/18QBWjmzY/3J84HZm7nR/a1A+2r+N7G8ZxyWxkabAqJpQvsy+wkMq+YmZ4mQszwCzmtC6u4WRKNRTJ8+3VF6OxokG+f2j6ZqampQUVEB9LwO9Lxq3dbqHCARomcmFzVEeGQ8RQHJ21nrcPr06dQvj4/W4+brcnNzUVdXh9ycIaD7NaDvbeNcnhUHWD2cav1cLnJS+h8ibhku30dV1R8Mf16PwYscgMt7gMELFqRo8ZNFTz73PEUD3/yKoix3+p5Jp4DTGyc7TgOhhngcgxHgapjvAx3AYAfw7gV+S5Kz9Nak7ITx8YetHy5/Sf2w8pYBgGxQVZUmEp8alqp0nJMEiCRuNsirvk6vvaUAMKUFgUC/AiEg5F0sddMxQdk5NVyM+z+uHSXqXnrCrAAAAABJRU5ErkJggg==;" vertex="1" parent="1">
          <mxGeometry x="280" y="80" width="64" height="64" as="geometry" />
        </mxCell>
        <mxCell id="hUeENhwksUNYIn8rWy90-3" value="observation" style="edgeStyle=orthogonalEdgeStyle;rounded=0;orthogonalLoop=1;jettySize=auto;html=1;verticalAlign=bottom;" edge="1" parent="1">
          <mxGeometry relative="1" as="geometry">
            <mxPoint x="170" y="100" as="sourcePoint" />
            <mxPoint x="270" y="100" as="targetPoint" />
          </mxGeometry>
        </mxCell>
        <mxCell id="hUeENhwksUNYIn8rWy90-2" value="ゲーム実行ファイル" style="shape=image;verticalLabelPosition=bottom;labelBackgroundColor=default;verticalAlign=top;aspect=fixed;imageAspect=0;image=data:image/png,iVBORw0KGgoAAAANSUhEUgAAAEAAAABACAYAAACqaXHeAAAAAXNSR0IArs4c6QAAAopJREFUeF7tWktLW0EUPjcWdWFcqNEYsMI1PrheEak7V7aI7hQhYhddxwfB39DfEHxk7aYoiO4qvn6CtY8sqhWsEJPYTW+iMRoTidAk5gEz90FnMie7JHNmzvfNd747M3ckEPwjCY4fkABUgOAMYAkILgA0QSwBLAHBGcASqCSAQCDQ8nh/P1oNAqmprT3yer1/ymEpq4BVv/8t2OCgGsDnMKTh3bzPd1iMqSwBa8v+9Vanc3ZyavqVzWbjmod0Og0721upaDj8aW7R94GUgA25y+0ZG5/gGvy/5Pd2P8P5r7PNuUXfDDUB8VgMgsHv0N7ugo7XnfDj28lzH/0Dg3D5+wKurkKgKCo02O3MkoUEGFEAs9NKkZghBVCMw2xTXQRkADzMItKRmARAZ4L9qupxd/dQD3Vzc0sdY3XA15MvEI2E6Qh4MzzskWWZOremllbqGKsDdJUAEoAKwBJ44QGRcAS0mFZSrm3ONmi0N+Z+L/aA87NTuL6OEpe57O4GhyPvIztBDXZ/xonjsw3HexpgUsnnZIoHJBIJeEg9lCRSCD77ZzEBmvYXkskkMYBC8Nmghe0QcWxhw5UpV+6rKQSQZmH2UwAJYEUB/8sDmFEAegChCaAHmLwUZqYE0ANwHUBmAugB1eoBZPNfuhQ2uhdgxgT1EoB7AVLmKrTjXgEG8fO/GzTqAR/3oxCJp6h47HXUwdJIMxvbYaMekMlk4Dh0R0XAkKseJCn/3pfr8wAq5BUaIwF63g3isTgei4t9LL7epyjvB1S1htaEzN4M0Y5f3F7XFRnhL0llWRT6mpxR2fEUjzdFeZotK3JFBVjBKk99ogJ4mi0rckUFWMEqT32iAniaLStyFV4BT1yCa1/xkqLwAAAAAElFTkSuQmCC;" vertex="1" parent="1">
          <mxGeometry x="80" y="80" width="64" height="64" as="geometry" />
        </mxCell>
      </root>
    </mxGraphModel>
  </diagram>
</mxfile>
